<mxfile host="app.diagrams.net" modified="2024-02-07T23:07:28.609Z" agent="Mozilla/5.0 (Windows NT 10.0; Win64; x64) AppleWebKit/537.36 (KHTML, like Gecko) Chrome/121.0.0.0 Safari/537.36 Edg/121.0.0.0" version="23.1.2" etag="qVoFooUDKoe4dTtH8fAd" type="github">
  <diagram name="Page-1" id="3lxE_RFPG2b4EuIK8n9X">
    <mxGraphModel>
      <root>
        <mxCell id="0" />
        <mxCell id="1" parent="0" />
      </root>
    </mxGraphModel>
  </diagram>
</mxfile>
